<svg width="78" height="37" viewBox="0 0 78 37" fill="none" xmlns="http://www.w3.org/2000/svg">
<path d="M4.9413 14.0032H2.00218V7.40072H0V5.25109H2.0021V3.72147C2.0021 1.90887 2.88764 0.608887 5.8188 0.608887C6.43874 0.608887 7.41203 0.721489 7.41203 0.721489V2.71754H6.38976C5.34815 2.71754 4.94146 3.00305 4.94146 3.79239V5.25109H7.37303L7.1565 7.40072H4.94138L4.9413 14.0032ZM11.6852 5.0793C11.6424 5.0793 11.5983 5.08071 11.5547 5.08169C8.82937 5.08169 7.58246 6.92901 7.58246 9.55133C7.58246 12.8547 9.19987 14.1769 11.576 14.1769C12.9354 14.1769 13.8286 13.6612 14.3715 12.699V14.0041H17.167V5.252H14.3715V6.59795C13.9282 5.732 13.0101 5.08956 11.6852 5.0793ZM12.396 7.1474C13.5406 7.1474 14.2277 7.86687 14.2277 9.09066L14.2303 10.3406C14.2303 11.1654 13.6629 12.1304 12.396 12.1304C10.4483 12.1304 10.5004 10.2353 10.5004 9.60412C10.5004 7.48092 11.5381 7.1474 12.396 7.1474ZM18.296 9.62851C18.296 8.56498 18.2395 5.085 23.2708 5.085C25.2905 5.085 26.1338 5.66368 26.1338 5.66368L25.456 7.55816C25.456 7.55816 24.6138 7.14023 23.5163 7.14023C22.1107 7.14023 21.2137 7.87453 21.2137 9.1665L21.2153 10.0929C21.2153 11.3343 22.0807 12.163 23.5192 12.163C24.519 12.163 25.4405 11.7412 25.4405 11.7412L26.1166 13.5961C26.1166 13.5961 25.3455 14.1784 23.285 14.1784C18.4943 14.1784 18.2961 11.0562 18.2961 9.62851H18.296ZM42.525 5.08169C45.2504 5.08169 46.5169 6.92901 46.5169 9.55133C46.5169 12.8547 44.8995 14.1769 42.5233 14.1769C41.1639 14.1769 40.1589 13.6613 39.616 12.699V14.0041L36.8557 14.0031V0.874999L39.7865 0.644664V6.47938C40.2095 5.45858 41.5995 5.08169 42.525 5.08169ZM41.7033 7.1474C40.5587 7.1474 39.7865 7.86687 39.7865 9.09066L39.7837 10.3406C39.782 11.1654 40.3185 12.1304 41.7033 12.1304C43.651 12.1304 43.599 10.2353 43.599 9.60412C43.599 7.48092 42.5613 7.1474 41.7033 7.1474ZM31.219 5.08893C28.1278 5.08893 26.4959 6.60765 26.4959 9.30659V9.80803C26.4959 13.311 28.7876 14.2129 31.5198 14.2129C34.1755 14.2129 35.3775 13.5435 35.3775 13.5435L34.8291 11.761C34.8291 11.761 33.4151 12.3031 31.8712 12.3031C30.2706 12.3031 29.5823 11.9355 29.4058 10.5494H35.6118V9.11941C35.6118 6.19176 33.7803 5.08886 31.2189 5.08886L31.219 5.08893ZM31.2934 6.87384C32.3634 6.87384 33.0568 7.4651 33.0187 8.83636H29.4112C29.4738 7.39313 30.2215 6.87384 31.2934 6.87384ZM52.3608 5.07691C49.1864 5.07691 47.5153 6.68891 47.5153 9.57769C47.5153 13.5413 50.396 14.1793 52.3661 14.1793C55.2502 14.1793 57.169 12.78 57.169 9.61368C57.169 6.31807 55.0115 5.07691 52.3608 5.07691ZM52.3208 7.15457C53.7167 7.15457 54.2697 8.09594 54.2697 9.16749V10.0888C54.2697 11.3868 53.4958 12.1377 52.3155 12.1377C51.2117 12.1377 50.4359 11.4353 50.4359 10.0888V9.16749C50.4359 7.73136 51.359 7.15457 52.3208 7.15457ZM63.0076 5.07691C59.8333 5.07691 58.1621 6.68891 58.1621 9.57769C58.1621 13.5413 61.0428 14.1793 63.0129 14.1793C65.897 14.1793 67.8159 12.78 67.8159 9.61368C67.8159 6.31807 65.6583 5.07691 63.0076 5.07691ZM62.9677 7.15457C64.3635 7.15457 64.9165 8.09594 64.9165 9.16749V10.0888C64.9165 11.3868 64.1426 12.1377 62.9624 12.1377C61.8585 12.1377 61.0827 11.4353 61.0827 10.0888V9.16749C61.0827 7.73136 62.0059 7.15457 62.9677 7.15457ZM68.9234 14.0032V0.874999L71.8626 0.644734V9.44407L74.7788 5.25116H77.8828L74.8408 9.59379L78 14.0032H74.8871L71.8626 9.72164V14.0032H68.9234Z" fill="white"/>
<path d="M51.9989 21.7141L53.6667 26.8471H59.0639L54.6975 30.0195L56.3653 35.1525L51.9989 31.9801L47.6325 35.1525L49.3003 30.0195L44.9339 26.8471H50.3311L51.9989 21.7141Z" fill="#FBBC02"/>
<path d="M66.8583 21.7141L68.5261 26.8471H73.9233L69.5568 30.0195L71.2247 35.1525L66.8583 31.9801L62.4919 35.1525L64.1597 30.0195L59.7933 26.8471H65.1904L66.8583 21.7141Z" fill="#FBBC02"/>
<path d="M37.1434 21.7141L38.8112 26.8471H44.2084L39.842 30.0195L41.5098 35.1525L37.1434 31.9801L32.777 35.1525L34.4448 30.0195L30.0784 26.8471H35.4756L37.1434 21.7141Z" fill="#FBBC02"/>
<path d="M22.286 21.7141L23.9538 26.8471H29.351L24.9846 30.0195L26.6524 35.1525L22.286 31.9801L17.9196 35.1525L19.5874 30.0195L15.221 26.8471H20.6182L22.286 21.7141Z" fill="#FBBC02"/>
<path d="M7.42857 21.7141L9.09639 26.8471H14.4936L10.1272 30.0195L11.795 35.1525L7.42857 31.9801L3.06217 35.1525L4.72999 30.0195L0.36358 26.8471H5.76075L7.42857 21.7141Z" fill="#FBBC02"/>
</svg>
