<svg width="41" height="40" viewBox="0 0 41 40" fill="none" xmlns="http://www.w3.org/2000/svg">
<rect x="7.66602" y="0.545166" width="26.6676" height="26.0616" rx="4" fill="white"/>
<path d="M30.4103 10.7874H29.6373V10.7476H21.0006V14.5861H26.424C25.6327 16.8206 23.5067 18.4247 21.0006 18.4247C17.8209 18.4247 15.2428 15.8466 15.2428 12.6669C15.2428 9.48713 17.8209 6.90908 21.0006 6.90908C22.4684 6.90908 23.8037 7.46279 24.8204 8.36724L27.5347 5.65292C25.8208 4.05562 23.5283 3.07056 21.0006 3.07056C15.701 3.07056 11.4043 7.36731 11.4043 12.6669C11.4043 17.9664 15.701 22.2632 21.0006 22.2632C26.3002 22.2632 30.5969 17.9664 30.5969 12.6669C30.5969 12.0234 30.5307 11.3954 30.4103 10.7874Z" fill="#FFC107"/>
<path d="M12.5098 8.20027L15.6626 10.5125C16.5157 8.40035 18.5818 6.90908 20.9996 6.90908C22.4674 6.90908 23.8027 7.46279 24.8194 8.36724L27.5338 5.65292C25.8199 4.05562 23.5273 3.07056 20.9996 3.07056C17.3137 3.07056 14.1171 5.15152 12.5098 8.20027Z" fill="#FF3D00"/>
<path d="M21.0001 22.2632C23.4789 22.2632 25.7311 21.3146 27.434 19.772L24.4639 17.2587C23.5005 17.9885 22.3028 18.4247 21.0001 18.4247C18.5041 18.4247 16.3848 16.8331 15.5864 14.6121L12.457 17.0231C14.0452 20.1309 17.2705 22.2632 21.0001 22.2632Z" fill="#4CAF50"/>
<path d="M30.4097 10.7874H29.6367V10.7476H21V14.5861H26.4234C26.0433 15.6594 25.3529 16.585 24.4623 17.2591L24.4638 17.2582L27.4338 19.7715C27.2237 19.9624 30.5963 17.465 30.5963 12.6668C30.5963 12.0234 30.5301 11.3953 30.4097 10.7874Z" fill="#1976D2"/>
<circle cx="4.44901" cy="35.698" r="3.45096" fill="#FBBC02"/>
<path d="M4.44971 33.0139L5.05232 34.8686H7.00242L5.42476 36.0148L6.02737 37.8695L4.44971 36.7232L2.87204 37.8695L3.47466 36.0148L1.89699 34.8686H3.84709L4.44971 33.0139Z" fill="white"/>
<circle cx="12.7244" cy="35.698" r="3.45096" fill="#FBBC02"/>
<path d="M12.7251 33.0142L13.3277 34.8688H15.2778L13.7001 36.0151L14.3028 37.8697L12.7251 36.7235L11.1474 37.8697L11.75 36.0151L10.1724 34.8688H12.1225L12.7251 33.0142Z" fill="white"/>
<circle cx="20.9998" cy="35.698" r="3.45096" fill="#FBBC02"/>
<path d="M21.0005 33.0139L21.6031 34.8686H23.5532L21.9755 36.0148L22.5782 37.8695L21.0005 36.7232L19.4228 37.8695L20.0254 36.0148L18.4478 34.8686H20.3979L21.0005 33.0139Z" fill="white"/>
<circle cx="29.2732" cy="35.698" r="3.45096" fill="#FBBC02"/>
<path d="M29.2739 33.0139L29.8765 34.8686H31.8266L30.249 36.0148L30.8516 37.8695L29.2739 36.7232L27.6963 37.8695L28.2989 36.0148L26.7212 34.8686H28.6713L29.2739 33.0139Z" fill="white"/>
<circle cx="37.5486" cy="35.698" r="3.45096" fill="#FBBC02"/>
<path d="M37.5493 33.0139L38.1519 34.8686H40.102L38.5244 36.0148L39.127 37.8695L37.5493 36.7232L35.9717 37.8695L36.5743 36.0148L34.9966 34.8686H36.9467L37.5493 33.0139Z" fill="white"/>
</svg>
