<svg width="73" height="45" viewBox="0 0 73 45" fill="none" xmlns="http://www.w3.org/2000/svg">
<path d="M51.1432 30.3499L52.7789 35.3842L58.0724 35.3842L53.7899 38.4956L55.4256 43.5299L51.1432 40.4185L46.8607 43.5299L48.4965 38.4956L44.214 35.3842L49.5074 35.3842L51.1432 30.3499Z" fill="#FBBC02"/>
<path d="M65.7155 30.3499L67.3512 35.3842L72.6446 35.3842L68.3622 38.4956L69.9979 43.5299L65.7155 40.4185L61.433 43.5299L63.0687 38.4956L58.7863 35.3842L64.0797 35.3842L65.7155 30.3499Z" fill="#FBBC02"/>
<path d="M36.5709 30.3499L38.2067 35.3842L43.5001 35.3842L39.2176 38.4956L40.8534 43.5299L36.5709 40.4185L32.2885 43.5299L33.9242 38.4956L29.6417 35.3842L34.9352 35.3842L36.5709 30.3499Z" fill="#FBBC02"/>
<path d="M21.9987 30.3499L23.6344 35.3842L28.9278 35.3842L24.6454 38.4956L26.2811 43.5299L21.9987 40.4185L17.7162 43.5299L19.3519 38.4956L15.0695 35.3842L20.3629 35.3842L21.9987 30.3499Z" fill="#FBBC02"/>
<path d="M7.42834 30.3499L9.0641 35.3842L14.3575 35.3842L10.0751 38.4956L11.7108 43.5299L7.42834 40.4185L3.14588 43.5299L4.78163 38.4956L0.499169 35.3842L5.79259 35.3842L7.42834 30.3499Z" fill="#FBBC02"/>
<path d="M23.3553 6.38414C24.4862 7.1203 24.7474 7.96919 24.4659 8.87225C24.3282 9.30026 23.9137 10.0764 22.9987 10.2405V20.1745C23.0004 20.9903 22.6473 21.7734 22.0168 22.3522C21.3864 22.9309 20.5301 23.258 19.6357 23.2618H6.93762C6.49354 23.2616 6.05385 23.1816 5.64371 23.0262C5.23357 22.871 4.86101 22.6434 4.54736 22.3567C4.23371 22.07 3.98511 21.7296 3.81578 21.3552C3.64646 20.9807 3.55972 20.5795 3.56055 20.1745V10.2405C2.65332 10.0764 2.23881 9.29885 2.10116 8.87225C1.81804 7.96919 2.08083 7.1203 3.21173 6.38414L11.0421 1.22241C11.8507 0.685981 12.5577 0.426326 13.2804 0.436313C14.0031 0.446299 14.7101 0.685981 15.5187 1.22241L23.3491 6.38414" fill="#F36F21"/>
<path d="M32.1468 12.8141C32.0451 12.4247 31.7823 12.2021 31.3553 12.2021C30.6233 12.2021 29.4251 12.7214 28.6539 13.1651V17.4266C29.2678 17.5894 29.9042 17.6706 30.5435 17.6677C32.3298 17.6677 32.3517 16.4265 32.3517 14.9256C32.3476 14.2179 32.279 13.5116 32.1468 12.8141ZM34.4023 17.8532C33.711 19.0387 32.2688 19.6308 30.5028 19.6308C29.8809 19.6306 29.261 19.5684 28.6539 19.4454V22.4285C28.6539 22.9464 28.4975 23.2617 27.8625 23.2617H27.1304C26.3984 23.2617 26.0527 23.169 26.0527 22.4285V11.3133C26.0527 10.6827 26.3655 10.5172 26.9474 10.5172H27.8625C28.3896 10.5172 28.4709 10.7569 28.5726 11.1278C29.5111 10.6642 30.5638 10.239 31.6807 10.239C32.5941 10.239 33.3058 10.4601 33.8329 10.9609C34.748 11.8169 34.9701 13.1651 34.9701 14.87C34.9701 16.4265 34.8278 17.1299 34.4023 17.8532ZM41.7274 15.4821C41.3817 15.4635 41.0579 15.445 40.7326 15.445C38.8024 15.445 38.2549 15.649 38.2549 16.6676C38.2549 17.3895 38.4771 17.9089 39.0057 17.9089C39.9442 17.9089 40.7936 17.5935 41.7274 16.9815V15.4821ZM43.448 19.4411H42.3093C41.9448 19.4411 41.7211 19.2413 41.7211 18.7278C40.706 19.2984 39.8128 19.6351 38.7148 19.6351C36.7642 19.6351 35.8101 18.6906 35.8101 16.8759C35.8101 14.7259 37.3336 14.1524 39.1215 13.9669C39.9768 13.8674 40.8385 13.8197 41.7008 13.8243C41.7008 13.3049 41.6805 12.787 41.5585 12.4903C41.4365 12.1935 41.133 12.0452 40.6857 12.0452C39.9739 12.0452 38.6741 12.2307 37.759 12.4346C37.6393 12.4617 37.5175 12.4803 37.3946 12.4903C36.9488 12.5274 36.6829 12.3604 36.6829 11.8968V11.3689C36.6829 10.998 36.7846 10.7012 37.2523 10.59C38.3475 10.3734 39.4635 10.2558 40.584 10.239C41.3958 10.239 42.7973 10.3503 43.4887 11.095C44.0768 11.7056 44.2598 12.262 44.2598 14.091V18.645C44.2598 19.1643 44.0768 19.4411 43.448 19.4411ZM51.613 12.2392C51.1047 12.2206 50.6746 12.2021 50.0082 12.2021C48.9727 12.2021 48.7287 12.3876 48.5253 12.7728C48.3079 13.2208 48.1406 14.1324 48.1406 15.0925C48.1453 15.5825 48.186 16.0715 48.2626 16.5564C48.4049 17.5935 48.6677 17.779 49.5217 17.779C50.2319 17.7621 50.9362 17.656 51.6146 17.4637L51.613 12.2392ZM53.7857 22.0205C53.0943 22.9664 51.7523 23.4101 50.0489 23.4101C48.7287 23.4101 47.1035 23.2675 46.2495 23.0592C45.8036 22.9479 45.641 22.614 45.641 22.2031C45.6264 21.9122 45.6743 21.6214 45.7818 21.3471C45.8135 21.2424 45.8832 21.1506 45.9794 21.0865C46.0757 21.0225 46.193 20.9902 46.3121 20.9947C46.4834 21.0134 46.6529 21.0444 46.8188 21.0875C47.923 21.3291 49.0542 21.4536 50.1896 21.4584C51.1282 21.4584 51.4504 21.1731 51.5505 20.6024C51.6041 20.1973 51.6251 19.7891 51.613 19.3812C50.8372 19.5279 50.0481 19.6082 49.2558 19.6208C46.5545 19.6208 45.5018 18.2498 45.5018 15.1753C45.5018 13.489 45.8475 12.1921 46.5967 11.396C47.4899 10.4516 48.4252 10.229 50.6182 10.229C51.5317 10.229 52.2637 10.229 53.4009 10.3032C54.0516 10.3403 54.2128 10.58 54.2128 11.1364V20.2329C54.2128 21.1403 54.1533 21.5169 53.7873 22.0106L53.7857 22.0205ZM61.2953 13.7115C61.2953 12.5631 61.1123 12.0808 59.7312 12.0808C58.2687 12.0808 57.9636 12.5445 57.9636 13.897V14.0639H61.2953V13.7115ZM62.9378 15.7003H57.9808C57.9605 16.6262 58.0216 17.3482 58.6519 17.6078C59.0399 17.7465 59.4536 17.8158 59.8704 17.8118C60.7055 17.7938 61.5361 17.6943 62.3481 17.5151C62.5805 17.452 62.8187 17.4085 63.0597 17.3852C63.3632 17.3852 63.5462 17.7191 63.6072 17.9559C63.6419 18.1578 63.6555 18.3623 63.6479 18.5665C63.6479 18.9945 63.5462 19.2884 62.9158 19.3812C61.9031 19.5391 60.8776 19.6198 59.8501 19.6223C58.3265 19.6223 57.23 19.3269 56.5653 18.752C55.7112 18.0301 55.4266 16.8245 55.4266 14.9913C55.4266 13.3605 55.6096 12.2677 56.2399 11.4531C56.8703 10.6385 57.9605 10.2304 59.7531 10.2304C61.4392 10.2304 62.4544 10.6185 63.0379 11.3789C63.6635 12.2121 63.7902 13.3762 63.7902 14.5647C63.7902 15.5834 63.6479 15.696 62.9378 15.696V15.7003ZM68.7252 19.6037C67.7557 19.6164 66.7862 19.5754 65.8221 19.481C65.3951 19.4269 65.2528 19.4068 65.2528 18.625C65.2528 18.2727 65.2136 18.0144 65.3747 17.662C65.4576 17.4951 65.5984 17.4395 65.844 17.4395C66.8946 17.568 67.9531 17.6362 69.013 17.6434C69.8452 17.6434 70.0282 17.5507 70.0282 16.9572C70.0282 16.6619 70.0079 16.4394 69.9062 16.3466C69.6012 16.0613 67.793 15.7759 66.4729 15.1796C65.4373 14.7159 65.0306 14.1809 65.0306 13.0866C65.0306 12.1037 65.2746 11.4374 65.7424 11.0108C66.4729 10.3446 67.671 10.269 69.6419 10.269C70.1502 10.269 70.6383 10.269 71.1451 10.3075C71.8755 10.3446 72.1602 10.4915 72.1602 11.2149C72.1602 11.5002 72.1602 11.864 72.0804 12.0109C71.9584 12.2335 71.7958 12.3633 71.4094 12.3633C70.9621 12.3633 70.1299 12.2206 68.7284 12.2206C67.7132 12.2206 67.5506 12.2578 67.5506 12.944C67.5317 13.0745 67.5681 13.2066 67.6522 13.3135C67.8759 13.5731 69.5809 13.9812 70.2112 14.1695C71.7926 14.6474 72.5418 15.1297 72.5418 16.7603C72.5418 19.0202 71.6283 19.6137 68.7237 19.6137" fill="white"/>
<path d="M14.3274 19.4337C14.9531 19.4337 15.1236 19.1156 15.1236 18.5963V12.8796C15.1236 11.6697 14.4979 10.2374 11.9812 10.2374C11.0221 10.2578 10.0803 10.4743 9.22505 10.8708V7.42537C9.22505 7.07296 9.06865 6.625 8.42891 6.625H7.51073C6.91791 6.625 6.61133 6.79339 6.61133 7.42537V18.6962C6.61133 19.1427 6.76775 19.4409 7.34806 19.4409H8.42891C9.05461 19.4409 9.22505 19.1227 9.22505 18.6035V13.0665C10.0822 12.5086 10.9191 12.2105 11.7153 12.2105C12.0828 12.2105 12.2659 12.2475 12.3675 12.3531C12.5115 12.52 12.5115 13.0222 12.5115 13.8226V18.5892C12.5115 19.147 12.7148 19.4266 13.2466 19.4266H14.3274V19.4337ZM19.1248 19.4266C19.7505 19.4266 19.9413 19.1113 19.9413 18.5906V11.3359C19.9413 10.9821 19.7567 10.5156 19.1248 10.5156H18.166C17.5731 10.5156 17.2665 10.7025 17.2665 11.3359V18.5963C17.2665 19.3396 17.6138 19.4323 18.349 19.4323H19.1311L19.1248 19.4266ZM19.1311 9.19443C19.7567 9.19443 19.9475 8.87773 19.9475 8.357V7.71073C19.9475 7.35691 19.763 6.89177 19.1311 6.89177H18.1722C17.5794 6.89177 17.2728 7.07869 17.2728 7.71073V8.36273C17.2728 9.10602 17.62 9.20016 18.3552 9.20016H19.1373" fill="white"/>
</svg>
