<svg width="239" height="47" viewBox="0 0 239 47" fill="none" xmlns="http://www.w3.org/2000/svg">
<path fill-rule="evenodd" clip-rule="evenodd" d="M91.0023 32.7545L90.5429 33.6758C90.4572 33.8704 90.5254 33.9681 90.7473 33.9681H96.8459C97.0666 33.9681 97.2198 33.8704 97.3049 33.6758L98.1729 31.8786C98.2747 31.6843 98.2148 31.5867 97.9937 31.5867H90.7473C89.5728 31.5867 88.752 31.2309 88.2847 30.5195C87.8162 29.8087 87.8379 28.9355 88.3483 27.9025L89.5476 25.3866C90.0409 24.3529 90.7808 23.481 91.7674 22.7696C92.754 22.0581 93.8343 21.7024 95.0084 21.7024H103.914C105.088 21.7024 105.905 22.0581 106.364 22.7696C106.823 23.481 106.806 24.3529 106.313 25.3866L105.624 26.8242H100.623L101.056 25.903C101.158 25.7087 101.098 25.6107 100.878 25.6107H94.7786C94.5575 25.6107 94.3962 25.7087 94.2937 25.903L93.4264 27.7005C93.3406 27.8951 93.4089 27.9921 93.6304 27.9921H100.878C102.051 27.9921 102.872 28.3482 103.34 29.0593C103.808 29.7708 103.786 30.6433 103.276 31.6766L102.076 34.1926C101.567 35.2259 100.843 36.0984 99.9078 36.8095C98.9719 37.521 97.9175 37.8767 96.7433 37.8767H87.7102C86.536 37.8767 85.7157 37.521 85.2479 36.8095C84.7798 36.0984 84.8012 35.2259 85.3116 34.1926L86.0004 32.7545H91.0023Z" fill="white"/>
<path fill-rule="evenodd" clip-rule="evenodd" d="M119.619 25.903C119.721 25.7087 119.661 25.6107 119.44 25.6107H112.831C112.61 25.6107 112.449 25.7087 112.347 25.903L108.596 33.6758C108.51 33.8704 108.578 33.9681 108.8 33.9681H115.409C115.63 33.9681 115.783 33.8704 115.868 33.6758L119.619 25.903ZM105.763 37.8767C104.589 37.8767 103.768 37.521 103.301 36.8095C102.833 36.0984 102.854 35.2259 103.364 34.1926L107.601 25.3866C108.093 24.3529 108.833 23.481 109.82 22.7696C110.807 22.0581 111.887 21.7024 113.061 21.7024H122.477C123.651 21.7024 124.468 22.0581 124.927 22.7696C125.386 23.481 125.369 24.3529 124.876 25.3866L120.64 34.1926C120.129 35.2259 119.385 36.0984 118.407 36.8095C117.429 37.521 116.353 37.8767 115.179 37.8767H105.763Z" fill="white"/>
<path fill-rule="evenodd" clip-rule="evenodd" d="M134.15 33.9681C134.37 33.9681 134.524 33.8704 134.609 33.6758L140.401 21.7024H145.403L139.381 34.1926C138.871 35.2259 138.169 36.0984 137.276 36.8095C136.382 37.521 135.349 37.8767 134.175 37.8767H124.427C123.254 37.8767 122.432 37.521 121.965 36.8095C121.497 36.0984 121.518 35.2259 122.028 34.1926L128.051 21.7024H133.052L127.26 33.6758C127.175 33.8704 127.243 33.9681 127.464 33.9681H134.15Z" fill="white"/>
<path fill-rule="evenodd" clip-rule="evenodd" d="M145.144 37.8767L151.064 25.6111H144.889L146.777 21.7024H164.129L162.241 25.6111H156.065L150.145 37.8767H145.144Z" fill="white"/>
<path fill-rule="evenodd" clip-rule="evenodd" d="M158.281 37.8767L166.089 21.7024H171.091L168.157 27.7679H175.531L178.466 21.7024H183.467L175.658 37.8767H170.657L173.643 31.6766H166.268L163.282 37.8767H158.281Z" fill="white"/>
<path fill-rule="evenodd" clip-rule="evenodd" d="M194.501 33.9681L192.613 37.8767H177.303L185.111 21.7024H200.422L198.533 25.6111H188.224L186.999 28.1498H196.16L194.578 31.4293H185.417L184.192 33.9681H194.501Z" fill="white"/>
<path fill-rule="evenodd" clip-rule="evenodd" d="M210.603 28.846C210.824 28.846 210.978 28.749 211.063 28.5537L212.339 25.9031C212.441 25.7088 212.381 25.6108 212.16 25.6108H205.551L203.994 28.846H210.603ZM202.438 21.7021H215.196C216.37 21.7021 217.187 22.0619 217.646 22.7808C218.105 23.4996 218.088 24.3681 217.595 25.3866L215.911 28.8909C215.417 29.8944 214.665 30.7592 213.653 31.4854C212.64 32.212 211.411 32.5751 209.966 32.5751H209.863L212.083 37.8768H206.342L204.607 32.5751H202.182L199.631 37.8768H194.629L202.438 21.7021Z" fill="white"/>
<path fill-rule="evenodd" clip-rule="evenodd" d="M221.355 21.7024H226.357L229.036 31.3169L233.68 21.7024H238.682L230.874 37.8767H226.127L223.193 28.2623L218.548 37.8767H213.547L221.355 21.7024Z" fill="white"/>
<path fill-rule="evenodd" clip-rule="evenodd" d="M88.0899 43.543C88.0815 43.5812 88.0636 43.6289 88.0369 43.6853C88.0103 43.7416 87.9809 43.7863 87.95 43.8192C87.9191 43.8521 87.8902 43.8682 87.8631 43.8682C87.8341 43.8682 87.8036 43.8517 87.772 43.8178C87.74 43.7839 87.6954 43.748 87.6378 43.7084C87.5802 43.6695 87.5029 43.6329 87.406 43.5994C87.3088 43.5655 87.1815 43.5487 87.0244 43.5487C86.8506 43.5487 86.6859 43.5772 86.5308 43.6346C86.3752 43.692 86.2292 43.7695 86.0931 43.8672C85.9567 43.9645 85.8312 44.0766 85.7161 44.2044C85.6014 44.3316 85.5 44.4649 85.4119 44.6045C85.3242 44.7437 85.2507 44.8843 85.1901 45.0266C85.1294 45.1686 85.0856 45.3035 85.0574 45.4307C85.025 45.5767 85.0174 45.7066 85.0334 45.82C85.0498 45.9341 85.0883 46.0301 85.1496 46.1086C85.211 46.1868 85.2941 46.2459 85.3993 46.2858C85.5038 46.3261 85.6288 46.3459 85.7737 46.3459C85.9353 46.3459 86.0779 46.3301 86.2018 46.2982C86.3257 46.2663 86.4339 46.2311 86.5262 46.1918C86.6184 46.1526 86.6962 46.117 86.7591 46.0851C86.8224 46.0532 86.8712 46.0375 86.9063 46.0375C86.9291 46.0375 86.9444 46.0445 86.9509 46.0593C86.9581 46.0737 86.9585 46.0958 86.952 46.125C86.9501 46.1338 86.9459 46.1469 86.939 46.1643C86.9318 46.1818 86.9242 46.2002 86.9154 46.2204C86.907 46.2405 86.8975 46.2623 86.8872 46.2858C86.8769 46.3096 86.8651 46.3321 86.8521 46.3526C86.8392 46.3737 86.8258 46.3928 86.8129 46.4103C86.7999 46.4274 86.7808 46.4452 86.7549 46.4633C86.729 46.4818 86.6775 46.5086 86.6005 46.5442C86.5235 46.5794 86.4309 46.6133 86.3234 46.6452C86.2163 46.6771 86.0973 46.7046 85.9673 46.7271C85.8374 46.7499 85.7016 46.7613 85.561 46.7613C85.3498 46.7613 85.166 46.7335 85.0086 46.6781C84.8508 46.6224 84.7246 46.5405 84.6301 46.4321C84.5351 46.3237 84.4726 46.1888 84.4429 46.0277C84.4135 45.8666 84.4219 45.6814 84.4684 45.472C84.5062 45.2988 84.5664 45.1209 84.648 44.938C84.7299 44.7548 84.8302 44.5769 84.9491 44.4038C85.0677 44.2306 85.2049 44.0678 85.3597 43.9145C85.5145 43.7618 85.6845 43.6275 85.8705 43.5118C86.0562 43.396 86.2571 43.305 86.4724 43.2386C86.6875 43.1721 86.9154 43.1389 87.1556 43.1389C87.3062 43.1389 87.4441 43.1537 87.5688 43.1839C87.6938 43.2141 87.7979 43.2517 87.8806 43.2973C87.9637 43.343 88.0221 43.3836 88.0556 43.4191C88.0892 43.4544 88.1002 43.4957 88.0899 43.543Z" fill="white"/>
<path fill-rule="evenodd" clip-rule="evenodd" d="M100.596 44.4012C100.624 44.2733 100.634 44.1565 100.624 44.0498C100.614 43.9431 100.582 43.8518 100.526 43.7753C100.471 43.6988 100.387 43.6394 100.277 43.5964C100.167 43.5538 100.026 43.532 99.8567 43.532C99.6417 43.532 99.445 43.5676 99.267 43.6374C99.0889 43.7075 98.9288 43.7991 98.7847 43.9122C98.6406 44.025 98.5141 44.1528 98.4051 44.2958C98.296 44.4388 98.2023 44.5831 98.123 44.7287C98.0448 44.8744 97.9804 45.0157 97.9305 45.1522C97.8805 45.2888 97.8447 45.4073 97.8226 45.5073C97.794 45.6368 97.7844 45.754 97.7932 45.8583C97.8024 45.963 97.8355 46.0526 97.8939 46.1278C97.9518 46.2023 98.0357 46.26 98.1455 46.301C98.2552 46.3416 98.3963 46.3624 98.5678 46.3624C98.7813 46.3624 98.9757 46.3282 99.1518 46.26C99.3287 46.1916 99.4881 46.1016 99.6306 45.9909C99.7732 45.8795 99.8994 45.754 100.009 45.6123C100.119 45.4714 100.213 45.3284 100.293 45.1838C100.372 45.0388 100.437 44.8982 100.487 44.7613C100.537 44.625 100.573 44.5049 100.596 44.4012ZM101.174 44.3683C101.143 44.5082 101.094 44.665 101.027 44.8378C100.96 45.011 100.873 45.1868 100.765 45.3653C100.657 45.5439 100.528 45.7174 100.378 45.8859C100.228 46.0543 100.056 46.2033 99.8624 46.3335C99.6676 46.4641 99.4481 46.5691 99.2026 46.649C98.9574 46.7292 98.6879 46.7695 98.394 46.7695C98.158 46.7695 97.9575 46.7433 97.7909 46.6916C97.6243 46.6396 97.4928 46.5621 97.3968 46.459C97.3007 46.3564 97.2389 46.2295 97.2122 46.0785C97.1856 45.9271 97.1947 45.7523 97.2382 45.5536C97.2732 45.3972 97.3255 45.2288 97.3964 45.0485C97.4673 44.868 97.5584 44.6881 97.6693 44.5086C97.7799 44.3294 97.9114 44.1572 98.0627 43.9911C98.2141 43.8256 98.3875 43.6783 98.5827 43.5498C98.7771 43.4216 98.9944 43.3196 99.2346 43.244C99.4747 43.1682 99.7397 43.1306 100.029 43.1306C100.263 43.1306 100.463 43.1575 100.628 43.2115C100.793 43.2649 100.923 43.3441 101.019 43.4491C101.114 43.5538 101.175 43.683 101.202 43.837C101.228 43.9904 101.218 44.1679 101.174 44.3683Z" fill="white"/>
<path fill-rule="evenodd" clip-rule="evenodd" d="M113.675 46.5236C113.661 46.5601 113.641 46.591 113.617 46.6165C113.592 46.642 113.567 46.6632 113.539 46.6793C113.512 46.6957 113.484 46.7075 113.455 46.7148C113.427 46.7222 113.399 46.7256 113.372 46.7256H113.171C113.117 46.7256 113.073 46.7202 113.038 46.7091C113.003 46.6984 112.974 46.6796 112.952 46.6534C112.93 46.6273 112.913 46.5924 112.901 46.5494C112.889 46.5068 112.877 46.4538 112.867 46.3897L112.528 44.5046C112.507 44.37 112.485 44.2358 112.464 44.1019C112.443 43.968 112.423 43.8338 112.406 43.6989H112.4C112.339 43.8482 112.278 43.9969 112.214 44.1442C112.15 44.2918 112.086 44.4392 112.02 44.5865L111.1 46.6467C111.092 46.6611 111.082 46.6739 111.068 46.6846C111.054 46.6957 111.036 46.7044 111.012 46.7105C110.99 46.7172 110.96 46.7226 110.925 46.7269C110.89 46.7316 110.849 46.734 110.801 46.734C110.753 46.734 110.714 46.7316 110.683 46.7269C110.652 46.7226 110.629 46.7172 110.614 46.7105C110.599 46.7044 110.59 46.6957 110.587 46.6846C110.584 46.6739 110.586 46.6611 110.594 46.6467L112.053 43.3847C112.085 43.3119 112.132 43.2599 112.191 43.229C112.25 43.1981 112.307 43.1827 112.361 43.1827H112.606C112.656 43.1827 112.698 43.1871 112.733 43.1965C112.769 43.2052 112.798 43.2216 112.819 43.2455C112.841 43.269 112.858 43.2998 112.87 43.3371C112.883 43.3743 112.895 43.422 112.907 43.4807L113.245 45.3896C113.267 45.5084 113.288 45.6265 113.308 45.745C113.329 45.8631 113.348 45.9826 113.367 46.1031H113.373C113.435 45.9534 113.501 45.799 113.571 45.6383C113.64 45.4782 113.708 45.3235 113.774 45.1741L114.635 43.2589C114.642 43.2445 114.651 43.2324 114.664 43.2223C114.677 43.2122 114.694 43.2035 114.716 43.1965C114.739 43.1888 114.766 43.1834 114.799 43.18C114.832 43.1763 114.874 43.1743 114.923 43.1743C114.97 43.1743 115.01 43.1763 115.041 43.18C115.072 43.1834 115.096 43.1888 115.112 43.1965C115.128 43.2035 115.138 43.2122 115.142 43.2223C115.146 43.2324 115.145 43.2445 115.14 43.2589L113.675 46.5236Z" fill="white"/>
<path fill-rule="evenodd" clip-rule="evenodd" d="M127.527 43.4504C127.524 43.4649 127.519 43.4816 127.512 43.5008C127.506 43.5199 127.498 43.54 127.488 43.5605C127.479 43.582 127.467 43.6035 127.455 43.6263C127.443 43.6491 127.429 43.6692 127.416 43.6864C127.402 43.7038 127.386 43.7179 127.371 43.7286C127.355 43.7397 127.338 43.7451 127.322 43.7451C127.299 43.7451 127.27 43.7337 127.235 43.7095C127.2 43.6864 127.154 43.6609 127.097 43.6343C127.039 43.6082 126.97 43.5833 126.888 43.5592C126.806 43.536 126.709 43.5239 126.595 43.5239C126.469 43.5239 126.354 43.5407 126.251 43.5743C126.149 43.6082 126.059 43.6538 125.983 43.7109C125.906 43.7682 125.844 43.8337 125.795 43.9065C125.747 43.9793 125.714 44.0548 125.697 44.1334C125.679 44.2132 125.684 44.2837 125.711 44.3435C125.738 44.4035 125.779 44.4582 125.833 44.5072C125.888 44.5566 125.952 44.6029 126.026 44.6465C126.1 44.6905 126.176 44.7351 126.252 44.7804C126.329 44.826 126.404 44.875 126.478 44.9267C126.551 44.9787 126.613 45.0388 126.663 45.1069C126.713 45.1754 126.749 45.2536 126.769 45.3419C126.79 45.4301 126.787 45.5328 126.762 45.6493C126.728 45.804 126.659 45.9493 126.557 46.0849C126.455 46.2204 126.326 46.3389 126.17 46.4403C126.014 46.5413 125.836 46.6215 125.634 46.6805C125.433 46.7396 125.216 46.7691 124.985 46.7691C124.858 46.7691 124.743 46.7597 124.639 46.7406C124.534 46.7215 124.442 46.6977 124.361 46.6695C124.281 46.6416 124.213 46.6121 124.16 46.5822C124.107 46.552 124.069 46.5255 124.048 46.5013C124.026 46.4782 124.02 46.4433 124.03 46.3976C124.033 46.3869 124.037 46.3715 124.045 46.3513C124.053 46.3315 124.062 46.3094 124.074 46.2855C124.085 46.2624 124.097 46.2389 124.109 46.2164C124.122 46.1933 124.135 46.1728 124.151 46.1533C124.167 46.1342 124.182 46.1188 124.199 46.107C124.214 46.0949 124.232 46.0892 124.25 46.0892C124.284 46.0892 124.322 46.1037 124.365 46.1328C124.408 46.1617 124.463 46.1933 124.529 46.2272C124.595 46.261 124.675 46.2923 124.77 46.3215C124.865 46.3506 124.981 46.3651 125.117 46.3651C125.262 46.3651 125.395 46.3473 125.517 46.3117C125.639 46.2761 125.745 46.2282 125.836 46.1671C125.927 46.106 126.002 46.0345 126.062 45.9526C126.121 45.8707 126.161 45.7832 126.182 45.6902C126.2 45.608 126.196 45.5368 126.17 45.4758C126.144 45.4147 126.105 45.3596 126.051 45.3106C125.998 45.2616 125.934 45.216 125.86 45.1741C125.786 45.1318 125.71 45.0881 125.634 45.0428C125.558 44.9975 125.485 44.9485 125.414 44.8965C125.342 44.8448 125.282 44.7848 125.233 44.7163C125.184 44.6482 125.149 44.5696 125.128 44.4814C125.107 44.3931 125.11 44.2898 125.136 44.1713C125.168 44.0277 125.23 43.8928 125.322 43.7669C125.414 43.6414 125.529 43.5313 125.668 43.4367C125.807 43.3417 125.966 43.2672 126.145 43.2128C126.325 43.1578 126.518 43.1306 126.725 43.1306C126.825 43.1306 126.917 43.138 127.004 43.1524C127.091 43.1672 127.168 43.1846 127.236 43.2058C127.304 43.2269 127.361 43.2494 127.407 43.2739C127.453 43.2987 127.484 43.3189 127.499 43.3353C127.514 43.3518 127.524 43.3686 127.528 43.386C127.533 43.4035 127.532 43.4246 127.527 43.4504Z" fill="white"/>
<path fill-rule="evenodd" clip-rule="evenodd" d="M140.603 43.2783C140.601 43.289 140.597 43.3041 140.592 43.3232C140.586 43.3427 140.578 43.3628 140.568 43.385C140.559 43.4065 140.546 43.43 140.533 43.4545C140.519 43.4793 140.504 43.5004 140.488 43.5186C140.472 43.537 140.453 43.5518 140.433 43.5635C140.413 43.5756 140.392 43.5813 140.372 43.5813H139.242L137.867 46.6466C137.86 46.6611 137.849 46.6738 137.836 46.6849C137.822 46.6956 137.803 46.7047 137.78 46.7107C137.757 46.7171 137.727 46.7225 137.691 46.7272C137.655 46.7319 137.611 46.7339 137.559 46.7339C137.507 46.7339 137.466 46.7319 137.433 46.7272C137.401 46.7225 137.377 46.7171 137.359 46.7107C137.342 46.7047 137.332 46.6956 137.328 46.6849C137.324 46.6738 137.326 46.6611 137.333 46.6466L138.706 43.5813H137.582C137.553 43.5813 137.535 43.5729 137.529 43.5568C137.521 43.5404 137.521 43.5175 137.528 43.4887C137.531 43.4759 137.536 43.4602 137.543 43.4407C137.55 43.4216 137.559 43.4001 137.57 43.3766C137.58 43.3528 137.592 43.3303 137.605 43.3085C137.618 43.2867 137.633 43.2662 137.649 43.2467C137.666 43.2279 137.683 43.2122 137.702 43.2004C137.72 43.1887 137.739 43.1826 137.76 43.1826H140.553C140.58 43.1826 140.596 43.1913 140.603 43.2088C140.609 43.2259 140.609 43.2491 140.603 43.2783Z" fill="white"/>
<path fill-rule="evenodd" clip-rule="evenodd" d="M152.259 43.9967C152.273 43.9346 152.273 43.8775 152.26 43.8245C152.247 43.7718 152.218 43.7262 152.174 43.6879C152.129 43.6497 152.067 43.6205 151.985 43.6003C151.904 43.5805 151.804 43.5701 151.686 43.5701H151.131L150.594 44.7615H151.066C151.25 44.7615 151.412 44.7397 151.551 44.6961C151.69 44.6521 151.808 44.5947 151.906 44.5222C152.003 44.4504 152.081 44.3692 152.14 44.2782C152.198 44.187 152.238 44.093 152.259 43.9967ZM152.853 43.9228C152.825 44.0484 152.778 44.1678 152.713 44.2809C152.648 44.3937 152.564 44.4974 152.461 44.592C152.359 44.6867 152.238 44.7712 152.098 44.8447C151.959 44.9186 151.802 44.9783 151.629 45.0239C151.731 45.0585 151.804 45.1313 151.848 45.2424C151.891 45.3535 151.912 45.5001 151.909 45.6824L151.901 46.4633C151.899 46.4982 151.898 46.5301 151.896 46.5603C151.895 46.5902 151.892 46.6177 151.886 46.6408C151.883 46.6573 151.874 46.6717 151.861 46.6835C151.848 46.6949 151.83 46.7046 151.805 46.712C151.781 46.7194 151.749 46.7247 151.707 46.7284C151.666 46.7321 151.616 46.7338 151.558 46.7338C151.505 46.7338 151.462 46.7321 151.43 46.7284C151.397 46.7247 151.373 46.7184 151.357 46.7093C151.342 46.7002 151.332 46.6888 151.328 46.6751C151.324 46.6616 151.322 46.6428 151.323 46.6194L151.348 45.7888C151.353 45.6921 151.349 45.6049 151.336 45.5263C151.324 45.4481 151.296 45.3803 151.255 45.3233C151.214 45.2656 151.156 45.2209 151.079 45.1894C151.002 45.1572 150.903 45.1414 150.784 45.1414H150.427L149.749 46.6489C149.742 46.662 149.732 46.6737 149.72 46.6848C149.707 46.6955 149.689 46.7046 149.664 46.7106C149.64 46.717 149.61 46.7224 149.574 46.7271C149.538 46.7318 149.494 46.7338 149.442 46.7338C149.395 46.7338 149.354 46.7321 149.321 46.7284C149.287 46.7247 149.262 46.7197 149.245 46.7133C149.228 46.7073 149.217 46.6982 149.212 46.6875C149.207 46.6767 149.208 46.6637 149.215 46.6489L150.684 43.3738C150.716 43.3027 150.76 43.253 150.816 43.2251C150.872 43.197 150.93 43.1829 150.99 43.1829H151.861C152.052 43.1829 152.216 43.199 152.352 43.2319C152.489 43.2644 152.598 43.3124 152.681 43.3755C152.765 43.4379 152.821 43.5154 152.849 43.6074C152.878 43.6993 152.879 43.8047 152.853 43.9228Z" fill="white"/>
<path fill-rule="evenodd" clip-rule="evenodd" d="M165.759 45.4308C165.661 45.6533 165.54 45.8479 165.395 46.0157C165.25 46.1832 165.088 46.3224 164.908 46.4335C164.729 46.5449 164.535 46.6285 164.328 46.6849C164.121 46.7413 163.904 46.7694 163.677 46.7694C163.436 46.7694 163.234 46.7409 163.07 46.6835C162.906 46.6262 162.783 46.5406 162.702 46.4265C162.621 46.313 162.582 46.1714 162.586 46.0019C162.591 45.8325 162.643 45.6358 162.744 45.412L163.711 43.2538C163.717 43.2393 163.726 43.2266 163.74 43.2155C163.754 43.2044 163.773 43.196 163.797 43.1897C163.821 43.1833 163.85 43.1779 163.886 43.1732C163.921 43.1685 163.964 43.1665 164.016 43.1665C164.068 43.1665 164.11 43.1685 164.142 43.1732C164.174 43.1779 164.199 43.1833 164.217 43.1897C164.236 43.196 164.246 43.2044 164.249 43.2155C164.251 43.2266 164.249 43.2393 164.242 43.2538L163.279 45.4063C163.208 45.5667 163.168 45.707 163.157 45.8271C163.146 45.9476 163.164 46.0472 163.21 46.1278C163.257 46.2077 163.332 46.2677 163.436 46.3077C163.54 46.3479 163.67 46.3677 163.828 46.3677C163.983 46.3677 164.13 46.3473 164.271 46.305C164.412 46.263 164.542 46.202 164.662 46.1207C164.783 46.0395 164.892 45.9395 164.989 45.8201C165.087 45.7009 165.171 45.5647 165.239 45.412L166.206 43.2538C166.211 43.2393 166.221 43.2266 166.235 43.2155C166.249 43.2044 166.267 43.196 166.29 43.1897C166.313 43.1833 166.342 43.1779 166.378 43.1732C166.413 43.1685 166.456 43.1665 166.508 43.1665C166.557 43.1665 166.599 43.1685 166.631 43.1732C166.662 43.1779 166.688 43.1833 166.706 43.1897C166.724 43.196 166.735 43.2044 166.739 43.2155C166.743 43.2266 166.742 43.2393 166.737 43.2538L165.759 45.4308Z" fill="white"/>
<path fill-rule="evenodd" clip-rule="evenodd" d="M179.787 43.543C179.779 43.5812 179.761 43.6289 179.735 43.6853C179.707 43.7416 179.678 43.7863 179.647 43.8192C179.616 43.8521 179.587 43.8682 179.56 43.8682C179.531 43.8682 179.501 43.8517 179.469 43.8178C179.437 43.7839 179.393 43.748 179.335 43.7084C179.278 43.6695 179.2 43.6329 179.103 43.5994C179.006 43.5655 178.879 43.5487 178.722 43.5487C178.548 43.5487 178.383 43.5772 178.228 43.6346C178.073 43.692 177.927 43.7695 177.79 43.8672C177.654 43.9645 177.528 44.0766 177.413 44.2044C177.299 44.3316 177.197 44.4649 177.109 44.6045C177.022 44.7437 176.948 44.8843 176.887 45.0266C176.827 45.1686 176.783 45.3035 176.755 45.4307C176.723 45.5767 176.714 45.7066 176.731 45.82C176.747 45.9341 176.786 46.0301 176.847 46.1086C176.908 46.1868 176.991 46.2459 177.097 46.2858C177.201 46.3261 177.326 46.3459 177.471 46.3459C177.633 46.3459 177.775 46.3301 177.899 46.2982C178.023 46.2663 178.131 46.2311 178.223 46.1918C178.316 46.1526 178.393 46.117 178.456 46.0851C178.519 46.0532 178.568 46.0375 178.603 46.0375C178.626 46.0375 178.641 46.0445 178.648 46.0593C178.655 46.0737 178.656 46.0958 178.649 46.125C178.647 46.1338 178.643 46.1469 178.636 46.1643C178.629 46.1818 178.621 46.2002 178.613 46.2204C178.604 46.2405 178.594 46.2623 178.584 46.2858C178.574 46.3096 178.562 46.3321 178.549 46.3526C178.536 46.3737 178.523 46.3928 178.511 46.4103C178.497 46.4274 178.478 46.4452 178.452 46.4633C178.426 46.4818 178.375 46.5086 178.298 46.5442C178.221 46.5794 178.128 46.6133 178.021 46.6452C177.914 46.6771 177.795 46.7046 177.665 46.7271C177.535 46.7499 177.399 46.7613 177.259 46.7613C177.047 46.7613 176.863 46.7335 176.706 46.6781C176.548 46.6224 176.422 46.5405 176.327 46.4321C176.232 46.3237 176.17 46.1888 176.14 46.0277C176.111 45.8666 176.119 45.6814 176.165 45.472C176.203 45.2988 176.263 45.1209 176.345 44.938C176.427 44.7548 176.527 44.5769 176.646 44.4038C176.765 44.2306 176.902 44.0678 177.057 43.9145C177.211 43.7618 177.382 43.6275 177.568 43.5118C177.753 43.396 177.954 43.305 178.17 43.2386C178.385 43.1721 178.612 43.1389 178.852 43.1389C179.003 43.1389 179.141 43.1537 179.266 43.1839C179.391 43.2141 179.495 43.2517 179.578 43.2973C179.661 43.343 179.719 43.3836 179.753 43.4191C179.786 43.4544 179.797 43.4957 179.787 43.543Z" fill="white"/>
<path fill-rule="evenodd" clip-rule="evenodd" d="M192.712 43.2783C192.71 43.289 192.706 43.3041 192.701 43.3232C192.695 43.3427 192.688 43.3628 192.678 43.385C192.668 43.4065 192.656 43.43 192.643 43.4545C192.629 43.4793 192.614 43.5004 192.597 43.5186C192.581 43.537 192.562 43.5518 192.543 43.5635C192.522 43.5756 192.502 43.5813 192.481 43.5813H191.351L189.976 46.6466C189.969 46.6611 189.959 46.6738 189.945 46.6849C189.931 46.6956 189.913 46.7047 189.889 46.7107C189.866 46.7171 189.836 46.7225 189.801 46.7272C189.764 46.7319 189.72 46.7339 189.669 46.7339C189.617 46.7339 189.575 46.7319 189.543 46.7272C189.511 46.7225 189.486 46.7171 189.469 46.7107C189.452 46.7047 189.441 46.6956 189.437 46.6849C189.434 46.6738 189.435 46.6611 189.443 46.6466L190.815 43.5813H189.691C189.662 43.5813 189.644 43.5729 189.638 43.5568C189.631 43.5404 189.631 43.5175 189.637 43.4887C189.64 43.4759 189.645 43.4602 189.652 43.4407C189.66 43.4216 189.669 43.4001 189.679 43.3766C189.69 43.3528 189.701 43.3303 189.714 43.3085C189.727 43.2867 189.742 43.2662 189.759 43.2467C189.775 43.2279 189.793 43.2122 189.811 43.2004C189.829 43.1887 189.849 43.1826 189.87 43.1826H192.662C192.689 43.1826 192.706 43.1913 192.712 43.2088C192.719 43.2259 192.719 43.2491 192.712 43.2783Z" fill="white"/>
<path fill-rule="evenodd" clip-rule="evenodd" d="M201.857 46.6491C201.852 46.6622 201.843 46.6739 201.829 46.6846C201.815 46.6957 201.796 46.7044 201.772 46.7105C201.748 46.7169 201.718 46.7226 201.681 46.7269C201.645 46.7316 201.602 46.734 201.553 46.734C201.499 46.734 201.456 46.7316 201.424 46.7269C201.392 46.7226 201.367 46.7169 201.35 46.7105C201.333 46.7044 201.322 46.6957 201.318 46.6846C201.315 46.6739 201.316 46.6622 201.323 46.6491L202.843 43.2508C202.848 43.2381 202.858 43.2263 202.874 43.2153C202.89 43.2045 202.91 43.1958 202.934 43.1894C202.958 43.183 202.988 43.1777 203.023 43.173C203.058 43.1683 203.101 43.1663 203.15 43.1663C203.2 43.1663 203.241 43.1683 203.273 43.173C203.305 43.1777 203.33 43.183 203.349 43.1894C203.367 43.1958 203.378 43.2045 203.382 43.2153C203.385 43.2263 203.384 43.2381 203.377 43.2508L201.857 46.6491Z" fill="white"/>
<path fill-rule="evenodd" clip-rule="evenodd" d="M216.151 44.4012C216.179 44.2733 216.188 44.1565 216.179 44.0498C216.169 43.9431 216.137 43.8518 216.081 43.7753C216.026 43.6988 215.942 43.6394 215.832 43.5964C215.721 43.5538 215.581 43.532 215.411 43.532C215.196 43.532 215 43.5676 214.822 43.6374C214.644 43.7075 214.483 43.7991 214.34 43.9122C214.195 44.025 214.069 44.1528 213.959 44.2958C213.851 44.4388 213.757 44.5831 213.678 44.7287C213.599 44.8744 213.535 45.0157 213.485 45.1522C213.435 45.2888 213.399 45.4073 213.377 45.5073C213.349 45.6368 213.339 45.754 213.348 45.8583C213.357 45.963 213.39 46.0526 213.449 46.1278C213.506 46.2023 213.59 46.26 213.7 46.301C213.81 46.3416 213.951 46.3624 214.123 46.3624C214.336 46.3624 214.531 46.3282 214.707 46.26C214.884 46.1916 215.042 46.1016 215.185 45.9909C215.328 45.8795 215.454 45.754 215.564 45.6123C215.673 45.4714 215.768 45.3284 215.848 45.1838C215.927 45.0388 215.992 44.8982 216.042 44.7613C216.092 44.625 216.128 44.5049 216.151 44.4012ZM216.729 44.3683C216.698 44.5082 216.649 44.665 216.582 44.8378C216.515 45.011 216.427 45.1868 216.32 45.3653C216.212 45.5439 216.083 45.7174 215.933 45.8859C215.783 46.0543 215.611 46.2033 215.417 46.3335C215.222 46.4641 215.003 46.5691 214.757 46.649C214.512 46.7292 214.243 46.7695 213.949 46.7695C213.713 46.7695 213.512 46.7433 213.346 46.6916C213.179 46.6396 213.048 46.5621 212.952 46.459C212.855 46.3564 212.794 46.2295 212.767 46.0785C212.74 45.9271 212.749 45.7523 212.793 45.5536C212.828 45.3972 212.88 45.2288 212.951 45.0485C213.022 44.868 213.113 44.6881 213.224 44.5086C213.335 44.3294 213.466 44.1572 213.618 43.9911C213.769 43.8256 213.942 43.6783 214.137 43.5498C214.332 43.4216 214.549 43.3196 214.789 43.244C215.03 43.1682 215.294 43.1306 215.584 43.1306C215.818 43.1306 216.017 43.1575 216.182 43.2115C216.347 43.2649 216.478 43.3441 216.573 43.4491C216.669 43.5538 216.73 43.683 216.756 43.837C216.782 43.9904 216.773 44.1679 216.729 44.3683Z" fill="white"/>
<path fill-rule="evenodd" clip-rule="evenodd" d="M229.229 46.5236C229.215 46.5601 229.196 46.591 229.172 46.6165C229.147 46.642 229.122 46.6632 229.094 46.6793C229.067 46.6957 229.039 46.7075 229.01 46.7148C228.982 46.7222 228.954 46.7256 228.927 46.7256H228.726C228.672 46.7256 228.628 46.7202 228.593 46.7091C228.558 46.6984 228.53 46.6796 228.507 46.6534C228.485 46.6273 228.468 46.5924 228.456 46.5494C228.443 46.5068 228.432 46.4538 228.421 46.3897L228.083 44.5046C228.061 44.37 228.04 44.2358 228.019 44.1019C227.997 43.968 227.978 43.8338 227.96 43.6989H227.954C227.894 43.8482 227.832 43.9969 227.769 44.1442C227.705 44.2918 227.64 44.4392 227.575 44.5865L226.654 46.6467C226.647 46.6611 226.637 46.6739 226.623 46.6846C226.609 46.6957 226.591 46.7044 226.567 46.7105C226.545 46.7172 226.515 46.7226 226.48 46.7269C226.445 46.7316 226.404 46.734 226.356 46.734C226.308 46.734 226.269 46.7316 226.238 46.7269C226.207 46.7226 226.184 46.7172 226.168 46.7105C226.154 46.7044 226.144 46.6957 226.142 46.6846C226.139 46.6739 226.141 46.6611 226.149 46.6467L227.607 43.3847C227.64 43.3119 227.686 43.2599 227.746 43.229C227.805 43.1981 227.862 43.1827 227.916 43.1827H228.161C228.211 43.1827 228.253 43.1871 228.288 43.1965C228.323 43.2052 228.352 43.2216 228.374 43.2455C228.395 43.269 228.413 43.2998 228.425 43.3371C228.437 43.3743 228.45 43.422 228.461 43.4807L228.8 45.3896C228.822 45.5084 228.843 45.6265 228.863 45.745C228.883 45.8631 228.903 45.9826 228.922 46.1031H228.928C228.99 45.9534 229.056 45.799 229.125 45.6383C229.195 45.4782 229.263 45.3235 229.329 45.1741L230.189 43.2589C230.197 43.2445 230.206 43.2324 230.219 43.2223C230.232 43.2122 230.249 43.2035 230.271 43.1965C230.293 43.1888 230.321 43.1834 230.354 43.18C230.387 43.1763 230.428 43.1743 230.478 43.1743C230.525 43.1743 230.565 43.1763 230.596 43.18C230.627 43.1834 230.651 43.1888 230.667 43.1965C230.683 43.2035 230.693 43.2122 230.697 43.2223C230.701 43.2324 230.7 43.2445 230.695 43.2589L229.229 46.5236Z" fill="white"/>
<path fill-rule="evenodd" clip-rule="evenodd" d="M37.3038 14.0638L40.8963 8.58584L44.4949 14.0728L50.0461 14.0795L45.0564 6.47125L40.8963 0.128174L36.7365 6.47125L31.7617 14.0567L37.3038 14.0638Z" fill="white"/>
<path fill-rule="evenodd" clip-rule="evenodd" d="M66.2153 38.7363H60.6687L62.3895 41.3607H40.8949H19.4004L21.1212 38.7363H15.5745L15.2402 39.2461L11.0801 45.5895H19.4004H40.8949H62.3895H70.7098L66.5496 39.2461L66.2153 38.7363Z" fill="white"/>
<path fill-rule="evenodd" clip-rule="evenodd" d="M80.0862 17.2923C79.7149 16.7802 79.0649 16.5234 78.1371 16.5234H62.5761C60.9746 16.5234 59.5584 16.9584 58.329 17.8279C57.0984 18.6974 56.1469 19.7636 55.4741 21.0271L49.6953 31.7917C48.9992 33.0548 48.9699 34.1214 49.608 34.9906C50.2466 35.8604 51.3666 36.295 52.9676 36.295H67.4845C68.4124 36.295 69.3406 36.039 70.2693 35.5262C71.1971 35.0141 71.8589 34.3912 72.2535 33.6589L74.6208 29.2378H67.7979L66.6836 31.2973C66.6138 31.444 66.4861 31.5168 66.3009 31.5168H57.1103C56.8083 31.5168 56.7153 31.398 56.8316 31.1601L61.7881 21.9577L56.7954 21.3016H62.6107H64.9662H71.801C71.9866 21.3016 72.0327 21.3751 71.9405 21.5215L70.8609 23.5807H77.6842L80.0515 19.1599C80.4461 18.4279 80.4575 17.8051 80.0862 17.2923Z" fill="white"/>
<path fill-rule="evenodd" clip-rule="evenodd" d="M31.5394 16.5234H10.6522L0 36.295H20.8869L23.4631 31.5168H9.39912L10.7322 29.0415L6.07726 28.43H11.0616L11.07 28.4139H23.5676L25.726 24.4046H13.2284L14.5207 22.0047L9.16887 21.3016H14.8996H17.3397H28.9632L31.5394 16.5234Z" fill="white"/>
<path fill-rule="evenodd" clip-rule="evenodd" d="M53.9234 17.8279C53.2967 16.9587 52.1825 16.5234 50.5814 16.5234H38.4318C36.8307 16.5234 35.3562 16.9587 34.0109 17.8279C32.6645 18.6978 31.655 19.7639 30.9822 21.0271L29.346 24.1025C28.6496 25.3657 28.6202 26.4326 29.2587 27.3021C29.8969 28.1716 31.0169 28.6062 32.6184 28.6062H42.505C42.8062 28.6062 42.8878 28.7257 42.7486 28.9629L41.8143 30.697L47.7414 31.4759H41.196C41.1182 31.5004 41.0347 31.5168 40.9383 31.5168H32.6184C32.3164 31.5168 32.2234 31.398 32.3397 31.1601L32.9664 30.0342H26.1431L25.2034 31.7917C24.507 33.0548 24.4776 34.1214 25.1161 34.9906C25.7543 35.8604 26.8743 36.295 28.4757 36.295H40.7991C42.4002 36.295 43.8393 35.8604 45.1156 34.9906C46.3919 34.1214 47.3784 33.0548 48.0745 31.7917L49.7111 28.7159C50.4072 27.4528 50.4361 26.3866 49.798 25.517C49.1595 24.6475 48.0398 24.2126 46.4388 24.2126H36.5521C36.2501 24.2126 36.1571 24.0935 36.2734 23.8555L37.2558 22.0326L31.6939 21.3016H38.1185H39.8648H46.4388C46.7399 21.3016 46.8215 21.4208 46.6824 21.6587L46.0903 22.7843H52.9136L53.8537 21.0271C54.5265 19.7639 54.5498 18.6978 53.9234 17.8279Z" fill="white"/>
</svg>
