<svg width="54" height="31" viewBox="0 0 54 31" fill="none" xmlns="http://www.w3.org/2000/svg">
<path fill-rule="evenodd" clip-rule="evenodd" d="M25.0588 9.36118L27.472 5.68141L29.8894 9.36726L33.6184 9.37177L30.2666 4.26094L27.472 0L24.6777 4.26094L21.3359 9.35644L25.0588 9.36118Z" fill="white"/>
<path fill-rule="evenodd" clip-rule="evenodd" d="M44.4802 25.9351H40.7543L41.9103 27.698H27.4714H13.0325L14.1884 25.9351H10.4625L10.2379 26.2775L7.44336 30.5387H13.0325H27.4714H41.9103H47.4994L44.7048 26.2775L44.4802 25.9351Z" fill="white"/>
<path fill-rule="evenodd" clip-rule="evenodd" d="M53.7986 11.5301C53.5492 11.1861 53.1126 11.0137 52.4893 11.0137H42.0362C40.9604 11.0137 40.0091 11.3058 39.1833 11.8899C38.3566 12.474 37.7175 13.1902 37.2655 14.039L33.3836 21.27C32.916 22.1186 32.8963 22.835 33.325 23.4189C33.7539 24.0032 34.5063 24.2952 35.5818 24.2952H45.3335C45.9567 24.2952 46.5803 24.1231 47.2041 23.7787C47.8274 23.4347 48.2719 23.0163 48.537 22.5244L50.1272 19.5545H45.544L44.7954 20.938C44.7486 21.0365 44.6628 21.0854 44.5383 21.0854H38.3646C38.1618 21.0854 38.0993 21.0056 38.1774 20.8458L41.5069 14.6641L38.1531 14.2234H42.0595H43.6418H48.233C48.3577 14.2234 48.3887 14.2728 48.3267 14.3711L47.6015 15.7543H52.185L53.7753 12.7847C54.0403 12.293 54.048 11.8746 53.7986 11.5301Z" fill="white"/>
<path fill-rule="evenodd" clip-rule="evenodd" d="M21.1865 11.0137H7.15555L0 24.2952H14.0307L15.7613 21.0854H6.31383L7.20933 19.4226L4.08237 19.0119H7.43058L7.43621 19.001H15.8314L17.2813 16.3078H8.88612L9.75422 14.6957L6.15916 14.2234H10.0088H11.6479H19.4559L21.1865 11.0137Z" fill="white"/>
<path fill-rule="evenodd" clip-rule="evenodd" d="M36.2213 11.8899C35.8003 11.3061 35.0518 11.0137 33.9763 11.0137H25.8149C24.7394 11.0137 23.7488 11.3061 22.8452 11.8899C21.9407 12.4743 21.2626 13.1905 20.8106 14.039L19.7115 16.1049C19.2437 16.9534 19.224 17.6701 19.6529 18.2542C20.0816 18.8383 20.8339 19.1302 21.9097 19.1302H28.5511C28.7534 19.1302 28.8082 19.2105 28.7147 19.3699L28.087 20.5347L32.0685 21.0579H27.6717C27.6194 21.0744 27.5634 21.0854 27.4986 21.0854H21.9097C21.7069 21.0854 21.6444 21.0056 21.7225 20.8458L22.1435 20.0894H17.56L16.9288 21.27C16.4609 22.1186 16.4412 22.835 16.8701 23.4189C17.2988 24.0032 18.0511 24.2952 19.1269 24.2952H27.4051C28.4806 24.2952 29.4473 24.0032 30.3047 23.4189C31.162 22.835 31.8247 22.1186 32.2923 21.27L33.3917 19.2039C33.8593 18.3554 33.8787 17.6392 33.4501 17.0551C33.0211 16.471 32.269 16.1788 31.1935 16.1788H24.5522C24.3493 16.1788 24.2869 16.0988 24.365 15.939L25.0249 14.7144L21.2887 14.2234H25.6044H26.7775H31.1935C31.3958 14.2234 31.4506 14.3034 31.3571 14.4633L30.9595 15.2194H35.543L36.1745 14.039C36.6264 13.1905 36.642 12.4743 36.2213 11.8899Z" fill="white"/>
</svg>
