<svg width="60" height="60" viewBox="0 0 60 60" fill="none" xmlns="http://www.w3.org/2000/svg">
<path d="M33.4864 22.5C33.6466 22.4992 33.8029 22.4509 33.9357 22.3613C34.0685 22.2717 34.1718 22.1448 34.2325 21.9965C34.2932 21.8483 34.3086 21.6854 34.2769 21.5284C34.2451 21.3714 34.1675 21.2273 34.0539 21.1143L32.3675 19.4359C32.2924 19.3587 32.2028 19.2972 32.1038 19.2551C32.0047 19.2129 31.8983 19.1908 31.7906 19.1902C31.683 19.1896 31.5763 19.2104 31.4768 19.2515C31.3773 19.2925 31.2869 19.353 31.211 19.4293C31.1351 19.5056 31.0752 19.5963 31.0347 19.6961C30.9942 19.7958 30.974 19.9026 30.9752 20.0102C30.9764 20.1179 30.9991 20.2242 31.0418 20.323C31.0846 20.4218 31.1466 20.5111 31.2242 20.5857L32.9107 22.264C32.9864 22.3393 33.0762 22.3989 33.175 22.4394C33.2738 22.4799 33.3796 22.5005 33.4864 22.5Z" fill="white" stroke="white"/>
<path d="M39.8837 52.4838C40.0988 52.4837 40.305 52.3983 40.457 52.2462L52.247 40.4594C52.399 40.3074 52.4844 40.1012 52.4844 39.8862C52.4844 39.6712 52.399 39.465 52.247 39.313L43.7651 30.8319C43.6131 30.6797 43.4068 30.5942 43.1917 30.5941C42.9766 30.5941 42.7703 30.6794 42.6182 30.8315C42.4661 30.9835 42.3805 31.1898 42.3805 31.4048C42.3804 31.6199 42.4658 31.8262 42.6178 31.9784L50.5264 39.8838L39.8837 50.5265L3.61374 14.2565C3.37608 14.0179 3.24264 13.6949 3.24264 13.3581C3.24264 13.0213 3.37608 12.6983 3.61374 12.4597L12.4597 3.61377C12.6983 3.37611 13.0213 3.24268 13.3581 3.24268C13.6948 3.24268 14.0179 3.37611 14.2564 3.61377L27.2124 16.5705C27.3644 16.7227 27.5707 16.8082 27.7857 16.8083C28.0008 16.8083 28.2071 16.723 28.3593 16.5709C28.5114 16.4189 28.5969 16.2127 28.597 15.9976C28.5971 15.7825 28.5117 15.5762 28.3597 15.424L15.4054 2.46729C14.8625 1.92602 14.1271 1.62207 13.3605 1.62207C12.5939 1.62207 11.8585 1.92602 11.3156 2.46729L2.46968 11.3132C1.92801 11.8559 1.62379 12.5913 1.62379 13.3581C1.62379 14.1249 1.92801 14.8603 2.46968 15.403L39.3129 52.2462C39.4644 52.3977 39.6696 52.4831 39.8837 52.4838Z" fill="white" stroke="white"/>
<path d="M39.1768 28.2001C39.3371 28.2002 39.4939 28.1528 39.6273 28.0638C39.7606 27.9749 39.8647 27.8484 39.9262 27.7004C39.9877 27.5524 40.004 27.3894 39.9729 27.2322C39.9419 27.0749 39.8649 26.9303 39.7517 26.8168L38.0733 25.1352C37.9216 24.9827 37.7155 24.8968 37.5005 24.8962C37.2854 24.8957 37.0789 24.9806 36.9264 25.1324C36.774 25.2841 36.688 25.4901 36.6875 25.7052C36.6869 25.9203 36.7719 26.1268 36.9236 26.2792L38.602 27.9649C38.6776 28.04 38.7673 28.0994 38.866 28.1397C38.9646 28.1801 39.0703 28.2006 39.1768 28.2001Z" fill="white" stroke="white"/>
<path d="M57.5687 58.3784C57.6971 58.3783 57.8237 58.3477 57.9379 58.2891C58.0522 58.2306 58.1509 58.1457 58.226 58.0415C58.301 57.9373 58.3503 57.8168 58.3696 57.6899C58.389 57.5629 58.3779 57.4332 58.3374 57.3114L52.4436 39.6276C52.3999 39.4965 52.3234 39.3786 52.2214 39.2854C52.1193 39.1921 51.9952 39.1265 51.8606 39.0947C51.7261 39.0629 51.5857 39.0661 51.4527 39.1039C51.3197 39.1417 51.1986 39.2128 51.1009 39.3106L39.3117 51.0998C39.2139 51.1975 39.1428 51.3186 39.105 51.4516C39.0672 51.5846 39.064 51.725 39.0958 51.8595C39.1276 51.9941 39.1932 52.1182 39.2865 52.2203C39.3797 52.3223 39.4976 52.3988 39.6287 52.4425L57.3125 58.3371C57.3952 58.3643 57.4817 58.3783 57.5687 58.3784ZM51.3198 41.3846L56.2868 56.2857L41.3865 51.3187L51.3198 41.3846Z" fill="white" stroke="white"/>
<path d="M11.8867 24.4865C12.1017 24.4864 12.3079 24.401 12.4599 24.2489L24.2451 12.4581C24.3927 12.3052 24.4745 12.1003 24.4726 11.8878C24.4708 11.6752 24.3855 11.4718 24.2352 11.3215C24.0848 11.1711 23.8815 11.0859 23.6689 11.084C23.4563 11.0822 23.2515 11.1639 23.0986 11.3116L11.3102 23.1008C11.1968 23.2142 11.1196 23.3586 11.0884 23.5159C11.0571 23.6732 11.0731 23.8362 11.1345 23.9843C11.1959 24.1324 11.2998 24.259 11.4331 24.3481C11.5664 24.4372 11.7231 24.4848 11.8834 24.4848L11.8867 24.4865Z" fill="white" stroke="white"/>
<path d="M45.7792 46.5891C45.9395 46.589 46.0963 46.5415 46.2296 46.4524C46.3629 46.3633 46.4668 46.2367 46.5281 46.0885C46.5895 45.9404 46.6055 45.7774 46.5743 45.6201C46.543 45.4629 46.4658 45.3184 46.3524 45.205L18.3535 17.2061C18.2006 17.0584 17.9958 16.9767 17.7832 16.9785C17.5706 16.9804 17.3672 17.0657 17.2169 17.216C17.0666 17.3663 16.9813 17.5697 16.9795 17.7823C16.9776 17.9949 17.0593 18.1997 17.207 18.3526L45.206 46.3515C45.358 46.5036 45.5642 46.589 45.7792 46.5891Z" fill="white" stroke="white"/>
</svg>
